<svg xmlns="http://www.w3.org/2000/svg" width="151.65" height="70.78" viewBox="0 0 151.65 70.78">
  <defs>
    <style>
      .cls-1 {
        fill: #fff;
      }
    </style>
  </defs>
  <path class="cls-1" d="M146.68,4H108a1,1,0,0,0-1,1V8.18a1,1,0,0,0,1,1h38.71a1,1,0,0,0,1-1V5A1,1,0,0,0,146.68,4Zm-.43,3.75H108.4V5.4h37.85Z"/>
  <path class="cls-1" d="M98.53,19H15a1,1,0,0,0-1,1V47.18a1,1,0,0,0,1,1H98.53a1,1,0,0,0,1-1V20A1,1,0,0,0,98.53,19Zm-.44,27.75H15.4V20.4H98.09Z"/>
  <path class="cls-1" d="M146.53,19H128a1,1,0,0,0-1,1V47.18a1,1,0,0,0,1,1h18.56a1,1,0,0,0,1-1V20A1,1,0,0,0,146.53,19Zm-.44,27.75H128.4V20.4h17.69Z"/>
  <path class="cls-1" d="M122.53,43h-6.72V37.19a1,1,0,0,0-1-1h-3.21a1,1,0,0,0-1,1V43H104a1,1,0,0,0-1,1v3.21a1,1,0,0,0,1,1h18.56a1,1,0,0,0,1-1V44A1,1,0,0,0,122.53,43Zm-.44,3.75H104.4V44.4h7.66V37.63h2.35v6.76h7.68Z"/>
  <path class="cls-1" d="M122.53,19H104a1,1,0,0,0-1,1V31.18a1,1,0,0,0,1,1h18.56a1,1,0,0,0,1-1V20A1,1,0,0,0,122.53,19Zm-.44,11.75H104.4V20.4h17.69Z"/>
  <path class="cls-1" d="M122.53,12H104a1,1,0,0,0-1,1v3.21a1,1,0,0,0,1,1h18.56a1,1,0,0,0,1-1V13A1,1,0,0,0,122.53,12Zm-.44,3.75H104.4V13.4h17.69Z"/>
  <path class="cls-1" d="M98.53,12H15a1,1,0,0,0-1,1v3.21a1,1,0,0,0,1,1H98.53a1,1,0,0,0,1-1V13A1,1,0,0,0,98.53,12Zm-.44,3.75H15.4V13.4H98.09Z"/>
  <path class="cls-1" d="M8.53,12H5a1,1,0,0,0-1,1v3.21a1,1,0,0,0,1,1H8.53a1,1,0,0,0,1-1V13A1,1,0,0,0,8.53,12Zm-.44,3.75H5.4V13.4H8.09Z"/>
  <path class="cls-1" d="M151.65,1a1,1,0,0,0-1-1H1A1,1,0,0,0,0,1V52.18a.8.8,0,0,0,0,.15H0V64.78l3.93,6H147.56l4.07-5.6V52.31c0-.05,0-.08,0-.13ZM1.4,1.4H150.25V51.75H1.4Zm0,51.75H106.75V62l-2.43,3H1.84l-.41-.63ZM146.84,69.38H4.7l-1.94-3H105l3.15-4v-9.3h42.08V64.72Z"/>
  <path class="cls-1" d="M5,9.15H30.68a1,1,0,0,0,1-1V5a1,1,0,0,0-1-1H5A1,1,0,0,0,4,5V8.18A1,1,0,0,0,5,9.15ZM5.4,5.4H30.25V7.75H5.4Z"/>
</svg>
