<svg xmlns="http://www.w3.org/2000/svg" width="66.03" height="101" viewBox="0 0 66.03 101">
  <defs>
    <style>
      .cls-1 {
        fill: #fdfeff;
      }
    </style>
  </defs>
  <path class="cls-1" d="M27.49,25.63C24.6,21.8,19.3,23.4,19.1,23.46A111,111,0,0,0,7.84,27.55C5,28.4,1.83,32,1.65,32.21c-3.94,4.4.41,10.48.45,10.54,2.06,2.93,7,3.23,9,3.23.45,0,.74,0,.8,0l.49,0c0,1.49-.16,6.35-.69,8-.11.83,0,2.19.93,2.64V100.5a.5.5,0,0,0,.5.5.5.5,0,0,0,.5-.5V56.36a.53.53,0,0,0,0-.17l.06-.41a8.56,8.56,0,0,1,2.3-.07v44.75a.5.5,0,0,0,.5.5.51.51,0,0,0,.5-.5V56.79s.05,0,.09,0l.13,0a2,2,0,0,0,1.37-1.88c0-.07.69-6.3,2.91-9.93a7.94,7.94,0,0,1,1.77-2l.44-.2.07,0a.47.47,0,0,0,.36-.18c7.17-2.74,6.49-8.58,6.49-8.64A18.74,18.74,0,0,0,27.49,25.63ZM13.06,54.86a.48.48,0,0,0-.36.3,3.51,3.51,0,0,1-.07-1c.57-1.79.7-7,.73-8.34a31.8,31.8,0,0,0,5.28-1.17,29.17,29.17,0,0,0-3.19,10A10,10,0,0,0,13.06,54.86Zm7.5-10.39c-2.34,3.81-3,10.08-3.06,10.38a1.15,1.15,0,0,1-.07.4.58.58,0,0,0-.21-.2,3.25,3.25,0,0,0-.78-.26A29.77,29.77,0,0,1,19.91,44.4a.4.4,0,0,0,.07-.18l1-.35C20.77,44.14,20.63,44.36,20.56,44.47Zm3-2.76-.27.12-.39.18a34.63,34.63,0,0,1-11,3c-.07,0-6.67.37-8.89-2.8,0,0-3.92-5.49-.51-9.29h0s3.1-3.59,5.76-4.38a114.13,114.13,0,0,1,11.2-4.07,9.31,9.31,0,0,1,2.49-.33,5.83,5.83,0,0,1,4.83,2.13,18.21,18.21,0,0,1,2.85,7.83C29.57,34.26,30.12,39.25,23.51,41.71Z"/>
  <path class="cls-1" d="M4.59,34.42a1.46,1.46,0,0,0-.81-.19,1.11,1.11,0,0,0-.83.21,3.06,3.06,0,0,0-.82,2v.06A8.38,8.38,0,0,0,3.5,41.12c.74,1,1.41,1.44,2,1.44h.12a1.18,1.18,0,0,0,.9-.6c.88-1.62,0-4,0-4C6.06,36.05,5.4,34.87,4.59,34.42Zm1.08,7.07a.17.17,0,0,1-.11.07s-.45,0-1.28-1.06a7.7,7.7,0,0,1-1.15-4,2.23,2.23,0,0,1,.41-1.25s0,0,.12,0a.45.45,0,0,0,.23,0s.91,0,1.7,3A4.67,4.67,0,0,1,5.67,41.49Z"/>
  <path class="cls-1" d="M21.82,26.2a1.14,1.14,0,0,0-1.32.47.83.83,0,0,0-.16.53,1.87,1.87,0,0,0,.8,1.13h0c5.08,3.5,2.94,8.23,2.85,8.43a.3.3,0,0,0,0,.1,1.47,1.47,0,0,0,.15,1.26.86.86,0,0,0,.39.27.63.63,0,0,0,.4.14h0c.48,0,.92-.48,1.16-.78,2.49-3.36.73-7.32.65-7.49C25.07,26.63,22.28,26.24,21.82,26.2Zm3.47,11a2.05,2.05,0,0,1-.33.33l-.05,0a.93.93,0,0,1,0-.34c.26-.61,2.26-5.84-3.21-9.61a1.65,1.65,0,0,1-.35-.35.34.34,0,0,1,.22,0l.11,0c.11,0,2.6.18,4.12,3.49C25.85,30.72,27.43,34.27,25.29,37.16Z"/>
  <path class="cls-1" d="M62,11.68C63,7,59.8,4.91,59.71,4.86a4.23,4.23,0,0,0-5.28,0l-3.7,3.3,0,0a5.92,5.92,0,0,0-1,6.09,1.83,1.83,0,0,1,.07.23.42.42,0,0,0,0,.22c1.12,3,3.25,3.49,4.55,3.49a5.05,5.05,0,0,0,1-.11c1.5-.11,4.14-2.78,4.64-3.29A6.83,6.83,0,0,0,62,11.68Zm-2.67,2.41c-1.19,1.24-3.23,3-4,3l-.13,0c-.12,0-3,.85-4.39-2.65a2.72,2.72,0,0,0-.13-.51,5,5,0,0,1,.78-5.1L55.07,5.6a3.29,3.29,0,0,1,4.06.07S61.84,7.44,61,11.45A5.83,5.83,0,0,1,59.32,14.09Z"/>
  <path class="cls-1" d="M64.68,4s-2-5-9.33-3.76c-.18,0-4.43.2-12.2,3.18-.24.09-6,2.36-7.17,5.53-.28.46-1.76,3.28.82,8.52.06.14,1.52,3.43,7.5,3.57,0,0,.48,0,1.25,0,.94,0,2.37,0,4.14-.18a60.91,60.91,0,0,1-1.46,6.25l-.59,2a1.86,1.86,0,0,0-.06,1.36,1.91,1.91,0,0,0,.8.95s0,0,0,0a160.78,160.78,0,0,0-1.11,20.18s0,2-.1,5v43.67a.5.5,0,0,0,.5.5.5.5,0,0,0,.5-.5V56.66c.05-3,.1-5,.1-5a166,166,0,0,1,1.07-19.83,8.28,8.28,0,0,0,2.25.34h.17c-.22,2.05-1.18,12.15-1.18,29.89v38.45a.5.5,0,0,0,.5.5.51.51,0,0,0,.5-.5V62c0-18.64,1.06-28.81,1.2-30a1.67,1.67,0,0,0,1.08-1c0-.1,2.95-8.5,6.1-12.34a.53.53,0,0,0,.12,0,10.67,10.67,0,0,0,5.58-6.33A11.77,11.77,0,0,0,64.68,4ZM44.34,20c-5.3-.13-6.57-2.85-6.63-3-2.5-5.08-.88-7.58-.87-7.6a.23.23,0,0,0,.06-.12c1-2.76,6.56-5,6.61-5a62.66,62.66,0,0,1,6-2,7.25,7.25,0,0,0-1,1c-.16.13-3.86,3.3-2.28,10.15a13.57,13.57,0,0,0,3.66,6.07c0,.09,0,.2,0,.32A43.61,43.61,0,0,1,44.34,20Zm8.57,10.6c-.14.42-.67.48-.71.49a7.65,7.65,0,0,1-3-.38,1.18,1.18,0,0,1-.67-.59.9.9,0,0,1,0-.67l.62-2.05a81.09,81.09,0,0,0,1.79-8,.5.5,0,0,0-.19-.48c-2.47-1.9-3.53-5.69-3.54-5.71-1.43-6.21,1.81-9,2-9.2a6.81,6.81,0,0,1,4.25-2.35,14.51,14.51,0,0,1,7.25,2.29c2.69,2.15,2.71,6.06,2.71,6.14.21,2.92-2.7,6.22-3,6.54C56.7,19.65,53.06,30.15,52.91,30.6ZM64.69,12a8.3,8.3,0,0,1-1.94,3.33,9,9,0,0,0,1.72-5.23c0-.18,0-4.44-3.09-6.89a13.12,13.12,0,0,0-5-2.08c5.83-.61,7.33,3.07,7.43,3.29A11.09,11.09,0,0,1,64.69,12Z"/>
</svg>
