<svg xmlns="http://www.w3.org/2000/svg" width="93.63" height="66.25" viewBox="0 0 93.63 66.25">
  <defs>
    <style>
      .cls-1 {
        fill: #fff;
      }
    </style>
  </defs>
  <path class="cls-1" d="M92.09,0H1.53A1.54,1.54,0,0,0,0,1.53V64.72a1.54,1.54,0,0,0,1.53,1.53H92.09a1.53,1.53,0,0,0,1.53-1.53V1.53A1.53,1.53,0,0,0,92.09,0Zm.53,64.72a.53.53,0,0,1-.53.53H1.53A.53.53,0,0,1,1,64.72V1.53A.53.53,0,0,1,1.53,1H92.09a.53.53,0,0,1,.53.53Z"/>
  <path class="cls-1" d="M82.07,54.07l-4.59,2.57a1.24,1.24,0,0,1-.6.15H73.53a1.18,1.18,0,0,1-.73-.24l-3-2.2a2.25,2.25,0,0,0-1.33-.43H24.9a2.24,2.24,0,0,0-1.32.43l-3,2.2a1.21,1.21,0,0,1-.73.24H16.53a1.2,1.2,0,0,1-.59-.15l-4.6-2.57a2.26,2.26,0,0,0-1.08-.28H7.37l7,6.09a2.26,2.26,0,0,0,1.45.54H77.57A2.26,2.26,0,0,0,79,59.88l7-6.09H83.16A2.3,2.3,0,0,0,82.07,54.07Zm-3.7,5a1.26,1.26,0,0,1-.8.3H15.85a1.24,1.24,0,0,1-.8-.3l-5-4.33h.21a1.28,1.28,0,0,1,.6.16l4.59,2.56a2.26,2.26,0,0,0,1.08.28h3.36a2.18,2.18,0,0,0,1.32-.44l3-2.19a1.21,1.21,0,0,1,.73-.24H68.51a1.21,1.21,0,0,1,.73.24l3,2.19a2.19,2.19,0,0,0,1.33.44h3.35A2.3,2.3,0,0,0,78,57.51L82.56,55a1.25,1.25,0,0,1,.6-.16h.21Z"/>
  <path class="cls-1" d="M77.57,6.79H15.85a2.21,2.21,0,0,0-1.45.54l-7,6.09h2.89a2.16,2.16,0,0,0,1.08-.29l4.6-2.56a1.2,1.2,0,0,1,.59-.15h3.36a1.21,1.21,0,0,1,.73.24l3,2.19a2.18,2.18,0,0,0,1.32.44H68.51a2.19,2.19,0,0,0,1.33-.44l3-2.19a1.21,1.21,0,0,1,.73-.24h3.35a1.24,1.24,0,0,1,.6.15l4.59,2.56a2.2,2.2,0,0,0,1.09.29h2.89L79,7.33A2.21,2.21,0,0,0,77.57,6.79Zm5.59,5.63a1.25,1.25,0,0,1-.6-.16L78,9.7a2.19,2.19,0,0,0-1.09-.28H73.53a2.25,2.25,0,0,0-1.33.43l-3,2.2a1.21,1.21,0,0,1-.73.24H24.9a1.23,1.23,0,0,1-.73-.24l-3-2.2a2.24,2.24,0,0,0-1.32-.43H16.53a2.15,2.15,0,0,0-1.08.28l-4.59,2.56a1.28,1.28,0,0,1-.6.16h-.21l5-4.33a1.24,1.24,0,0,1,.8-.3H77.57a1.26,1.26,0,0,1,.8.3l5,4.33Z"/>
  <path class="cls-1" d="M11.52,48.7a1.1,1.1,0,0,0,.81,1.84H39.08a1.13,1.13,0,0,0,.79-.33l6.9-7,6.91,7a1,1,0,0,0,.78.33H81.21A1.1,1.1,0,0,0,82,48.7L68,33.49a.12.12,0,0,1,0-.14l14-15a1.07,1.07,0,0,0,.21-1.19,1.1,1.1,0,0,0-1-.66H54.46a1.14,1.14,0,0,0-.78.32l-6.91,6.91-6.91-6.91a1.12,1.12,0,0,0-.77-.32H12.34a1.1,1.1,0,0,0-.8,1.85l14.05,15a.12.12,0,0,1,0,.14Zm14.8-16-14-15a.11.11,0,0,1,0-.11.09.09,0,0,1,.09-.06l26.81,0,7.23,7.22h.79l7.29-7.25H81.2a.08.08,0,0,1,.09.06.09.09,0,0,1,0,.11l-14,15a1.1,1.1,0,0,0,0,1.5L81.29,49.38a.08.08,0,0,1,0,.1.08.08,0,0,1-.09.06l-26.82,0-7.08-7.19a.47.47,0,0,0-.35-.15.58.58,0,0,0-.19,0,.5.5,0,0,0-.54.12l-7.15,7.22H12.33a.08.08,0,0,1-.09-.06.08.08,0,0,1,0-.1L26.32,34.17A1.11,1.11,0,0,0,26.32,32.67Z"/>
  <path class="cls-1" d="M37.54,31.65h1.22l.3-1,2.59-1.48.26-.88H40.69l-.13.44-1.9,1.08-1.21-1c0-.1.15-.48.15-.48H36.38l-.25.84,1.72,1.49Z"/>
  <path class="cls-1" d="M47.84,30.29l-.41,1.36H53l.27-.88H49L50.88,30l-1.44-.81h4.27L54,28.3H48.44L48,29.62l.6.34Z"/>
  <polygon class="cls-1" points="31.57 28.3 30.36 28.3 29.35 31.65 30.56 31.65 31.57 28.3"/>
  <path class="cls-1" d="M31.25,30.42H34l-.37,1.23h1.22l1-3.35H34.66s-.33,1.12-.37,1.23H31.52Z"/>
  <path class="cls-1" d="M42.55,31.65l.75-2.47h3.09c0,.06-.07.22-.08.28l-1,.44H43.4l-.27.88h2.33l1.91-.8.51-1.68H42.34l-1,3.35Z"/>
  <path class="cls-1" d="M53.88,30.53l-.33,1.12h1.22S55,31,55,30.8Q54.48,30.65,53.88,30.53Z"/>
  <path class="cls-1" d="M51.85,30A17,17,0,0,1,60,32.74c-2.62,1.66-6.77,3.1-13.32,3.15,0,0,9.37,1.41,14.47-2.34a18.34,18.34,0,0,1,4.4,4.7A12.17,12.17,0,0,0,62,32.8a7.75,7.75,0,0,0,2.31-5.21A8.85,8.85,0,0,1,61,32a11.68,11.68,0,0,0-2.87-1.4l1.46-.6.51-1.72H54.55l-.48,1.6A12.7,12.7,0,0,0,51.85,30Zm3.66-.81H58.6c0,.13-.07.26-.09.32l-.95.4H55.29C55.34,29.75,55.48,29.28,55.51,29.18Z"/>
</svg>
