<svg xmlns="http://www.w3.org/2000/svg" width="44.7" height="107.58" viewBox="0 0 44.7 107.58">
  <defs>
    <style>
      .cls-1{fill:#fff}
    </style>
  </defs>
  <title>
    Hx Quad Cast Microphone
  </title>
  <path class="cls-1" d="M23.61 89a.62.62 0 1 0 .61.61.61.61 0 0 0-.61-.61zM21.26 88.91a.72.72 0 1 0 .72.72.72.72 0 0 0-.72-.72z"/>
  <path class="cls-1" d="M43.48 60.42a1.22 1.22 0 0 0 1.22-1.22v-.63a1.22 1.22 0 0 0-1.22-1.22H40.7l-5.57-3.91h.35a1.23 1.23 0 0 0 1.22-1.23v-2.64a1.22 1.22 0 0 0-1.22-1.22l-1-1V3.7c0 .91 0-1-1-2.09A4.63 4.63 0 0 0 30.17.39a81.24 81.24 0 0 0-15.76 0c-1.4.11-4 1.51-4 3.6v43.39l-1.15 1A1.23 1.23 0 0 0 8 49.57v2.64a1.23 1.23 0 0 0 1.23 1.23h.49l-5.84 3.91H1.23A1.23 1.23 0 0 0 0 58.57v.63a1.23 1.23 0 0 0 1.23 1.22h3.05l.1 4.93H1.23A1.23 1.23 0 0 0 0 66.57v.63a1.23 1.23 0 0 0 1.23 1.22H4l.05.06 5.39 3.87h-.21A1.23 1.23 0 0 0 8 73.57v2.64a1.23 1.23 0 0 0 1.23 1.23h1.15v9.72c.05.09.09.18.39.26a6 6 0 0 0 1.15 4 2.89 2.89 0 0 0 2.19.9h3.58v8.86c-4 .06-7.63.18-10.58.37-6.62.45-6.74.9-6.74 1.45v2.78c0 .52 0 1 6.79 1.44 4.08.26 9.51.4 15.29.4s11.2-.14 15.29-.4c6.79-.42 6.79-.92 6.79-1.43l.05-2.73c0-.53 0-1-6.79-1.44-3-.19-6.64-.31-10.64-.37v-8.93h3.19a3.55 3.55 0 0 0 2.58-1 5.66 5.66 0 0 0 1.24-3.94c.29-.1.35-.21.38-.32v-9.62h1a1.23 1.23 0 0 0 1.22-1.23v-2.64a1.22 1.22 0 0 0-1.22-1.22h-.13l5.23-3.93h2.9a1.22 1.22 0 0 0 1.16-1.22v-.63a1.22 1.22 0 0 0-1.22-1.22h-3l.11-4.93zM39 57.35h-4.48v-3.12zM33.52 6.94v1.93l-1.3-.81v.31l-1.45.9v1.87l1.95 1.21V12l.8-.5v.66l-.64.41v1.86l.64.41v.7l-1.26-.79v.31l-1.45.94v1.87l1.95 1.21v-.31l.76-.48v.77l-.76.46v1.88l.76.47v.82l-1.3-.81v.31l-1.45.91V25l1.95 1.21v-.31l.8-.5v.7l-.89.55v1.87l.89.55v1l-1.39-.86v.31l-1.45.9v1.87l2 1.21v-.31l.88-.55v.9l-.72.45v1.87l.72.44v1.09l-1.3-.81v.32l-1.45.9v1.8l1.95 1.21v-.31l.8-.5v1.3l-.64.36v1.88l.64.38v4.43H11.38v-4.07l1-.61v-1.86l-1-.61v-1.1l1.29.81v-.32l1.45-.9v-1.87l-1.95-1.21v.31l-.79.5v-.94l.89-.56v-1.87l-.89-.54v-.74l1.21.76v-.32l1.45-.9v-1.87l-1.95-1.21v.31l-.71.45v-.88l.72-.49v-1.87l-.72-.42v-.87l1.29.81V26l1.45-.91v-1.9L12.17 22v.32l-.79.49v-.71l.85-.53v-1.9l-.85-.54v-.78l1.34.83v-.31l1.44-.9V16.1l-1.95-1.21v.31l-.83.52v-.5l1-.61v-1.86l-1-.61v-.56l1.44.89v-.31l1.44-.91V9.39l-1.95-1.22v.32l-.93.58v-4.5c0-2.89 3-3.17 3.12-3.19a80.57 80.57 0 0 1 15.62 0 3.59 3.59 0 0 1 2.68.9 2.73 2.73 0 0 1 .72 1.84v1.8M11.38 9.66l1.19-.74 1.19.74V11l-1.2.75-1.18-.75zm0 3.07l.47.29v1.32l-.47.29zm0 3.58l1.09-.68 1.19.75v1.31l-1.2.75-1.08-.68zm0 3.42l.35.21v1.32l-.35.22zm0 3.64l1-.65 1.19.74v1.32l-1.2.75-1-.65zm0 3.54l.22.13v1.31l-.22.16zm0 3.67l1-.61 1.2.75V32l-1.21.75-.95-.6zm0 3.51l.39.24v1.31l-.39.25zm0 3.92l1-.66 1.19.75v1.31l-1.2.75-1-.65zm0 3.78l.47.29v1.32l-.47.29zM33.52 9.45V11l-1.05.66-1.2-.75V9.55l1.2-.75zm0 3.34v1.5l-.14-.09v-1.32zm0 3.37v1.55l-1 .64-1.2-.75v-1.31l1.2-.76zm0 3.5v1.62l-.26-.16v-1.31zm0 3.62v1.5l-1.06.66-1.19-.75v-1.31l1.2-.76zm0 3.38v1.79l-.39-.24V26.9zm0 3.92V32l-1.14.71-1.2-.75v-1.33l1.21-.75zm0 3.48v1.58l-.22-.13V34.2zm0 3.85v1.5l-1.06.66-1.19-.75V38l1.2-.75zm0 4v1.46l-.14-.08V42zM9.23 52.44a.23.23 0 0 1-.23-.23v-2.64a.22.22 0 0 1 .23-.22h26.25a.22.22 0 0 1 .22.22v2.64a.23.23 0 0 1-.22.23H9.23zm4.83 1h19.36v3.91h-22v-3.82zm-2.57-.76s-.02 0 0 0zm-1.11 1.52v3.15h-4.7zM5.67 68.42h4.66v3.34zm5.7 0H33.5v3.93H11.37zm32.11 37.08c-1.24.47-8.89 1.08-21.08 1.08S2.58 106 1.32 105.51v-1.73a36.17 36.17 0 0 0 5.84.66c4.08.25 9.51.39 15.29.39s11.2-.14 15.29-.39a37.39 37.39 0 0 0 5.77-.64zm-1-2.51a169.68 169.68 0 0 1-20 .84 169.9 169.9 0 0 1-20-.84 169.9 169.9 0 0 1 20-.84 169.68 169.68 0 0 1 19.97.85zm-23.71-1.82v-8.85h7.33v8.85h-3.65zm13.41-10.61a2.46 2.46 0 0 1-1.87.76H14.16a1.86 1.86 0 0 1-1.45-.59 4.92 4.92 0 0 1-.9-3.15c1.41.15 4.35.28 10.56.4 6.3-.07 9.29-.22 10.73-.41a4.43 4.43 0 0 1-.92 2.99zm1.34-4c-1.33.25-7.14.42-11.15.46-7.86-.15-10.27-.34-11-.44v-9.1h22.15zm2-13.17a.22.22 0 0 1 .22.22v2.64a.23.23 0 0 1-.22.23H9.23a.23.23 0 0 1-.23-.27v-2.64a.22.22 0 0 1 .23-.22h24.34a.4.4 0 0 0 .19 0 .61.61 0 0 0 .19 0h1.53zm-1-1.63v-3.3h4.39zm9-5.37a.22.22 0 0 1 .22.22v.63a.22.22 0 0 1-.22.22H1.23A.22.22 0 0 1 1 67.2v-.63a.22.22 0 0 1 .23-.22h42.25zM5.78 60.42h4.6v4.93h-4.5zm5.6 4.93v-4.93h22.14v4.93zm23.14-4.93h4.67l-.11 4.93h-4.56zm0-1H1.23A.22.22 0 0 1 1 59.2v-.63a.22.22 0 0 1 .23-.22h42.25a.22.22 0 0 1 .22.22v.63a.22.22 0 0 1-.22.22z"/>
  <path class="cls-1" d="M20.66 12.09l1.45-.91V9.32L20.16 8.1v.32l-1.45.9v1.87l1.95 1.21zm-1.45-1.18V9.6l1.2-.75 1.2.74v1.32l-1.21.75zM24.6 12.09l1.4-.91V9.32L24.09 8.1v.32l-1.45.9v1.87l2 1.21zm-1.46-1.18V9.6l1.21-.75 1.19.74v1.32l-1.2.75zM28.67 12l1.45-.9V9.27l-1.95-1.21v.31l-1.45.9v1.87l2 1.21zm-1.45-1.18V9.55l1.2-.75 1.2.75v1.31l-1.21.75zM16.7 12.11l1.45-.9V9.34L16.2 8.13v.31l-1.45.9v1.87l1.95 1.21zm-1.45-1.18V9.62l1.2-.75 1.2.75v1.31l-1.2.75zM16.79 14.55l2 1.21v-.31l1.44-.91v-1.86l-2-1.22v.32l-1.45.9zm.5-1.59l1.21-.76 1.19.75v1.32l-1.2.75-1.2-.75zM20.73 14.55l1.95 1.21v-.31l1.45-.91v-1.86l-1.95-1.22v.32l-1.45.9zm.5-1.59l1.2-.76 1.2.75v1.32l-1.21.73-1.19-.75zM24.8 14.5l2 1.21v-.31l1.44-.9v-1.87l-1.95-1.21v.31l-1.45.9zm.5-1.59l1.21-.75 1.19.75v1.31l-1.2.78-1.2-.75zM28.85 14.5l2 1.21v-.31l1.45-.9v-1.87l-2-1.21v.31l-1.45.9zm.5-1.59l1.21-.75 1.2.75v1.31l-1.21.78-1.2-.75zM14.79 15.47l1.45-.9V12.7l-2-1.21v.31l-1.44.9v1.87l1.95 1.21zm-1.45-1.18V13l1.2-.75 1.2.75v1.31l-1.21.69zM16.17 15.17l-1.45.91V18l2 1.21v-.31l1.45-.91v-1.92l-1.95-1.21zm1.45 1.18v1.31l-1.2.76-1.2-.75v-1.31l1.21-.76zM20.1 15.17l-1.45.91V18l2 1.21v-.31l1.45-.91v-1.92l-2-1.21zm1.46 1.18v1.31l-1.21.76-1.2-.75v-1.31l1.21-.76zM24.18 15.13l-1.45.9v1.87l1.95 1.21v-.31l1.45-.9V16l-1.95-1.21zm1.45 1.18v1.31l-1.2.75-1.2-.75v-1.31l1.2-.75zM28.73 18.8l1.45-.9V16l-1.95-1.21v.31l-1.45.9v1.9l1.95 1.21zm-1.45-1.18v-1.31l1.21-.75 1.19.75v1.31l-1.2.75zM18.12 18.7l-1.45.9v1.87l1.95 1.21v-.31l1.45-.9V19.6l-1.95-1.21zm1.45 1.18v1.31l-1.2.75-1.2-.75v-1.31l1.2-.75zM22.05 18.7l-1.45.9v1.87l2 1.21v-.31l1.44-.9V19.6l-1.95-1.21zm1.45 1.18v1.31l-1.2.75-1.2-.75v-1.31l1.21-.75zM26.13 18.65l-1.45.91v1.86l1.95 1.22v-.32l1.45-.9v-1.87l-1.95-1.21zm1.45 1.18v1.31l-1.2.75-1.2-.74v-1.32l1.2-.75zM30.18 18.65l-1.45.91v1.86l1.95 1.22v-.32l1.45-.9v-1.87l-2-1.21zm1.45 1.18v1.31l-1.2.75-1.2-.74v-1.32l1.2-.75zM14.66 22.39l1.45-.9v-1.87l-1.95-1.21v.31l-1.45.91v1.86l1.95 1.22zm-1.45-1.17V19.9l1.21-.75 1.19.75v1.31l-1.2.75zM14.68 25l1.95 1.21v-.31l1.45-.9v-1.84L16.13 22v.31l-1.45.91zm.5-1.59l1.2-.76 1.2.75v1.31l-1.2.76-1.2-.75zM20.57 25.94L22 25v-1.84l-2-1.21v.31l-1.45.91V25l2 1.21zm-1.46-1.18v-1.31l1.21-.76 1.2.75v1.31l-1.21.76zM24.64 25.89l1.45-.89v-1.88l-1.95-1.22v.32l-1.45.9V25l1.95 1.21zm-1.45-1.18V23.4l1.2-.75 1.2.74v1.32l-1.2.75zM28.69 25.89l1.45-.89v-1.88l-1.95-1.22v.32l-1.45.9V25l2 1.21zm-1.45-1.18V23.4l1.2-.75 1.2.74v1.32l-1.2.75zM18 25.79l-1.45.9v1.87l2 1.21v-.31l1.45-.91v-1.86l-2-1.22zM19.45 27v1.32l-1.21.68-1.24-.72V27l1.21-.75zM22.43 29.46l1.45-.91v-1.86l-1.95-1.22v.32l-1.45.9v1.87l1.95 1.21zM21 28.28V27l1.2-.75 1.2.74v1.32l-1.2.75zM26.51 29.41l1.45-.9v-1.87l-2-1.21v.31l-1.45.91v1.86l2 1.22zm-1.46-1.17v-1.32l1.21-.75 1.2.75v1.31l-1.21.77zM30.05 25.74l-1.45.91v1.86l2 1.22v-.32l1.45-.9v-1.87l-2-1.21zm1.46 1.18v1.31L30.3 29l-1.2-.74v-1.34l1.21-.75zM14.54 29.48l1.45-.9v-1.87L14 25.5v.31l-1.44.91v1.86l1.95 1.22zm-1.45-1.17V27l1.2-.75 1.2.75v1.3l-1.21.75zM14.6 32.29l2 1.21v-.31l1.45-.9v-1.87l-2-1.21v.31l-1.44.9zm.5-1.59l1.2-.7 1.2.75V32l-1.21.75L15.1 32zM20.48 33.19l1.45-.9v-1.87L20 29.21v.31l-1.45.9v1.87l1.95 1.21zM19 32v-1.3l1.24-.7 1.19.75V32l-1.2.75zM24.56 33.14l1.45-.9v-1.87l-2-1.21v.31l-1.44.91v1.86l1.95 1.22zM23.11 32v-1.35l1.2-.75 1.2.75V32l-1.21.75zM28.61 33.14l1.45-.9v-1.87l-2-1.21v.31l-1.44.91v1.86l1.95 1.22zM27.16 32v-1.35l1.2-.75 1.2.75V32l-1.21.75zM18.66 36.76l1.45-.91V34l-1.95-1.21v.31l-1.45.9v1.87l1.95 1.21zm-1.45-1.18v-1.31l1.21-.76 1.19.75v1.31l-1.2.76zM22.6 36.76l1.45-.91V34l-2-1.21v.31l-1.4.9v1.87l2 1.21zm-1.45-1.18v-1.31l1.2-.76 1.2.75v1.31l-1.21.76zM26.67 36.71l1.45-.91v-1.86l-1.95-1.22V33l-1.45.9v1.87l2 1.21zm-1.45-1.18v-1.31l1.2-.75 1.2.74v1.32l-1.2.75zM30.22 33l-1.45.9v1.87L30.72 37v-.31l1.45-.91v-1.84l-2-1.22zm1.45 1.17v1.32l-1.2.75-1.2-.75v-1.27l1.21-.75zM14.71 36.78l1.44-.91V34l-1.95-1.21v.32l-1.45.9v1.87l2 1.21zm-1.46-1.18v-1.31l1.21-.75 1.19.74v1.32l-1.2.75zM18.08 37.8l-1.95-1.22v.32l-1.45.9v1.87l1.95 1.21v-.31l1.45-.91zm-.5 1.59l-1.2.75-1.2-.75v-1.31l1.2-.75 1.2.74zM22 37.8l-2-1.22v.32l-1.45.9v1.87l2 1.21v-.31l1.45-.91zm-.5 1.59l-1.21.75-1.2-.75v-1.31l1.21-.75 1.2.74zM26.09 37.75l-1.95-1.21v.31l-1.45.91v1.86l1.95 1.22v-.32l1.45-.9zm-.5 1.59l-1.2.75-1.2-.74V38l1.2-.75 1.2.75zM30.14 37.75l-1.95-1.21v.31l-1.45.91v1.86l2 1.22v-.32l1.45-.9zm-.5 1.59l-1.2.75-1.2-.74V38l1.2-.75 1.2.75zM18.24 40.84l-1.45.9v1.87l2 1.21v-.31l1.44-.91v-1.86l-2-1.22zM19.69 42v1.32l-1.2.75-1.2-.75V42l1.21-.76zM22.18 40.84l-1.45.9v1.87l1.95 1.21v-.31l1.45-.91v-1.86l-1.95-1.22zM23.63 42v1.32l-1.21.75-1.19-.75V42l1.2-.76zM26.25 40.79l-1.45.9v1.87l2 1.21v-.31l1.44-.9v-1.87l-1.95-1.21zM27.7 42v1.31l-1.2.69-1.2-.75V42l1.21-.75zM30.3 40.79l-1.45.9v1.87l2 1.21v-.31l1.45-.9v-1.87l-2-1.21zM31.76 42v1.31l-1.21.69-1.2-.75V42l1.21-.75zM14.28 40.86l-1.44.9v1.87l1.95 1.21v-.31l1.45-.9v-1.87l-2-1.21zM15.74 42v1.31l-1.21.75-1.19-.75V42l1.2-.75z"/>
</svg>