<svg xmlns="http://www.w3.org/2000/svg" width="112px" height="36px" viewBox="0 0 111.57 35.66"><defs><style>.cls-1{fill:none;stroke:#fff;stroke-miterlimit:10;}</style></defs><title>Asset 10</title><g id="Layer_2" data-name="Layer 2"><g id="Layer_1-2" data-name="Layer 1"><path class="cls-1" d="M3.16.52V10.1H.57v9.09H1.69s.6-.09.6.6v1.53a.58.58,0,0,1-.57.57H.53v4H1.67s.57-.11.57.58v1.64a.43.43,0,0,1-.46.46H.5V34a1.07,1.07,0,0,0,1.12,1.13h42.6s1-.16,1-1V32.41a.67.67,0,0,1,.71-.62s.6.09.6.56v1.78s.06.92.92.92h62.86a.8.8,0,0,0,.79-.79V28.6h-1.2a.57.57,0,0,1-.62-.62V26.38a.44.44,0,0,1,.47-.47h1.34V22.13h-1.28a.55.55,0,0,1-.56-.56V20.19s-.05-.74.54-.74H111V10.38h-1.8V.54h-4V4.44h-1.81V.51h-3.28V6.38H98.31V.52H92.91V4.38H91V.5H87.31V6.44h-2V.51H79.72v4h-2V.5h-3.5V6.35H72V.54H40.53V6.38H38.25V.53H34.88V4.26H32.75V.54H27.09V6.35H25V.53H21.41V4.32h-2V.54H14V6.38H12.13V.51H8.76l0,3.84H7V.51Z"/></g></g></svg>