<svg xmlns="http://www.w3.org/2000/svg" width="135.43" height="44.12" viewBox="0 0 135.43 44.12">
  <defs>
    <style>
      .cls-1 {
        fill: #fff;
      }
    </style>
  </defs>
  <path class="cls-1" d="M16.76,21.46h.82s.19-.62.2-.67l1.74-1,.18-.59h-.82l-.09.29-1.28.73-.81-.7.1-.32H16l-.17.56,1.16,1Z"/>
  <path class="cls-1" d="M23.67,20.55l-.27.91h3.72l.17-.59H24.47l1.25-.53-1-.54h2.87l.18-.59H24.07l-.26.89.4.22Z"/>
  <polygon class="cls-1" points="12.75 19.21 11.94 19.21 11.26 21.46 12.08 21.46 12.75 19.21"/>
  <path class="cls-1" d="M12.54,20.63H14.4c0,.15-.24.83-.24.83H15l.67-2.25h-.82s-.22.75-.25.83H12.72Z"/>
  <path class="cls-1" d="M20.13,21.46l.49-1.66H22.7a1.39,1.39,0,0,1-.06.19l-.69.29H20.69l-.18.6h1.57l1.28-.54.34-1.13H20l-.67,2.25Z"/>
  <path class="cls-1" d="M27.73,20.71l-.23.75h.82l.17-.57C28.25,20.82,28,20.76,27.73,20.71Z"/>
  <path class="cls-1" d="M26.36,20.34a11.4,11.4,0,0,1,5.45,1.85c-1.76,1.11-4.55,2.08-8.94,2.11,0,0,6.29.95,9.71-1.57a12.58,12.58,0,0,1,3,3.16,8.06,8.06,0,0,0-2.36-3.66,5.18,5.18,0,0,0,1.55-3.5,5.94,5.94,0,0,1-2.23,3,7.79,7.79,0,0,0-1.92-.95l1-.4.34-1.15H28.18l-.32,1.07A9.12,9.12,0,0,0,26.36,20.34Zm2.46-.54H30.9l-.07.21-.63.27H28.67C28.71,20.18,28.8,19.86,28.82,19.8Z"/>
  <path class="cls-1" d="M135.43,20.58v-1h-6v-.5a.93.93,0,0,0-.93-.93h-4.8V16.59a1.06,1.06,0,0,0-1.07-1.06H111V9.8a2.08,2.08,0,0,0-.54-1.4L103.34.67A2.1,2.1,0,0,0,101.81,0H8.7A2.06,2.06,0,0,0,6.85,1.14l-3,6a2.6,2.6,0,0,0-.15.42L.1,21.58a3.32,3.32,0,0,0,0,1.47L3.4,38.46a1.91,1.91,0,0,0,.23.6l2.29,4a2.07,2.07,0,0,0,1.79,1l.1,0h.1l.27,0H102a2,2,0,0,0,1.6-.77l6.85-8.41A2.1,2.1,0,0,0,111,33.6V27.38h11.69a1.07,1.07,0,0,0,1.07-1.07V24.93h4.8a.93.93,0,0,0,.93-.93v-.42h6v-1h-6v-2ZM102.6,1.35l2.6,2.83H50.79a4.33,4.33,0,0,0-.95.11L41,6.41a2.84,2.84,0,0,1-.72.09H10.41l.16-.69a2.39,2.39,0,0,0,.06-.53l-.06-3.1A2.05,2.05,0,0,0,10.16,1h91.65A1.08,1.08,0,0,1,102.6,1.35ZM6.79,42.55l-2.3-4a1.15,1.15,0,0,1-.11-.31L1.05,22.84a2.16,2.16,0,0,1,0-1l3.59-14a1.8,1.8,0,0,1,.08-.21l3-6A1.08,1.08,0,0,1,8.5,1a.53.53,0,0,0,.23.13,1.11,1.11,0,0,1,.84,1l.06,3.1a1.41,1.41,0,0,1,0,.28L8.32,10.89a2.08,2.08,0,0,0,1.84,2.57l26.7,2.43a2.29,2.29,0,0,1,2.36,2.36v6.29a2.84,2.84,0,0,1-3,2.92L10,30.15A2.1,2.1,0,0,0,8.51,31a2.07,2.07,0,0,0-.36,1.65l1.09,5.23a.93.93,0,0,1,0,.24L9.2,41.54a2,2,0,0,1-.65,1.26,1.33,1.33,0,0,1-.44.29h-.4A1.07,1.07,0,0,1,6.79,42.55Zm96.08.14a1.09,1.09,0,0,1-.83.4H9.63a2.76,2.76,0,0,0,.57-1.53l.06-3.43a2.38,2.38,0,0,0,0-.46l0-.17h30.9a2.39,2.39,0,0,1,.53.06l9.44,2.25a3.22,3.22,0,0,0,.76.09h53.33ZM110,33.6a1.1,1.1,0,0,1-.24.67l-3.78,4.64H51.81a2.33,2.33,0,0,1-.53-.06l-9.44-2.25a3.29,3.29,0,0,0-.76-.09H10l-.84-4a1.1,1.1,0,0,1,.19-.86,1,1,0,0,1,.77-.44L36.3,28.46a3.78,3.78,0,0,0,3.92-3.92V18.25a3.22,3.22,0,0,0-3.31-3.36h0L10.25,12.47a1.1,1.1,0,0,1-1-1.34l.89-3.7a.48.48,0,0,0,.24.07H40.23a3.69,3.69,0,0,0,1-.12l8.89-2.11a3,3,0,0,1,.72-.09H105.9l.18,0,3.6,3.93a1.07,1.07,0,0,1,.28.72Zm1-7.22V16.53l11.76.06-.07,9.79Zm17.49-2.45h-4.73V19.15h4.73Z"/>
</svg>
