<svg xmlns="http://www.w3.org/2000/svg" xmlns:xlink="http://www.w3.org/1999/xlink" width="120px" height="33px" viewBox="0 0 120 33"><defs><style>.cls-1,.cls-2{fill:none;}.cls-1{clip-rule:evenodd;}.cls-3{clip-path:url(#clip-path);}.cls-4{clip-path:url(#clip-path-2);}.cls-5{fill:#fff;}</style><clipPath id="clip-path" transform="translate(-458 -108)"><path class="cls-1" d="M573,139.38v-5.74H570.9v-1.93H573v-4.26H570.9v-1.93H573V116.1H570.9v-1l-.55,0h-.11a9.84,9.84,0,0,1-1.81-.37,5,5,0,0,1-2.17-1.21l-.18-.19H552.74l-.15.34a2.12,2.12,0,0,1-.82.73,6.94,6.94,0,0,1-3.51.74l-14.57,0h-2.93l-2.08-1.63h-4l2.08,1.63h-2.29l-2.08-1.63h-4l2.08,1.63H518.2l-2.08-1.63h-4l2.08,1.63h-2.29l-2.08-1.63h-4l2.08,1.63h-2.29l-2.08-1.63h-4l2.08,1.63h-2.29l-2.08-1.63h-4l2.08,1.63h-2.29L491,113.43h-4l2.08,1.63h-3.66a17.59,17.59,0,0,1-3-.28,7.59,7.59,0,0,1-3.78-1.62l-.17-.17h-9l-.15.36a3.87,3.87,0,0,1-.74,1,5.74,5.74,0,0,1-2.59,1.49h-3v9.66h2.09v1.93H463v4.26h2.09v1.93H463v5.57a2,2,0,0,0,.2.84,1.61,1.61,0,0,0,.54.62,1.75,1.75,0,0,0,1,.28l43.39,0h63.31a1.82,1.82,0,0,0,.87-.21,1.34,1.34,0,0,0,.5-.48,1.51,1.51,0,0,0,.2-.78Zm-1,.5-.12.08-.23,0H509.14v-3l0,0a1.1,1.1,0,0,0-2.2.07h0s0,0,0,0v.87s0,0,0,0V140l-42.35,0a.56.56,0,0,1-.33-.08.53.53,0,0,1-.19-.3l0-.16v-4.5h2.1v-4.32H464v-2h2.1v-4.32H464V116.9h2l.08,0a6.92,6.92,0,0,0,3.26-1.92,5.5,5.5,0,0,0,.72-1h7.85a9,9,0,0,0,4.18,1.79,18.6,18.6,0,0,0,3.24.31h.12l62.91,0a7.83,7.83,0,0,0,4.28-1,3.46,3.46,0,0,0,.91-.82h12.21a6.77,6.77,0,0,0,2.86,1.47,11.38,11.38,0,0,0,1.26.26v1.11H572v7.18h-2.1v4.32H572v2h-2.1v4.32H572v4.78A.38.38,0,0,1,572,139.88Z"/></clipPath><clipPath id="clip-path-2" transform="translate(-458 -108)"><rect class="cls-2" width="1400" height="263"/></clipPath></defs><title>Asset 3</title><g id="Layer_2" data-name="Layer 2"><g id="Layer_1-2" data-name="Layer 1"><g class="cls-3"><g class="cls-4"><rect class="cls-5" width="120" height="38"/></g></g></g></g></svg>